<svg xmlns="http://www.w3.org/2000/svg" x="0px" y="0px" width="100" height="100" viewBox="0,0,256,256">
<g transform="translate(-8.96,-8.96) scale(1.07,1.07)"><g fill="#000000" fill-rule="nonzero" stroke="none" stroke-width="1" stroke-linecap="butt" stroke-linejoin="miter" stroke-miterlimit="10" stroke-dasharray="" stroke-dashoffset="0" font-family="none" font-weight="none" font-size="none" text-anchor="none" style="mix-blend-mode: normal"><g transform="scale(4,4)"><path d="M32,4c-10.513,0 -19,6.237 -19,21c0,14.763 8.487,35 19,35c10.513,0 19,-20.237 19,-35c0,-14.763 -8.487,-21 -19,-21zM17,38c0,0 -1.743,-1.936 -0.5,-4.5l1.5,2zM16,25l1.324,1.85c0,0 -3.824,-9.85 4.83,-16.85c0,0 -2.154,2.055 -2.154,6.5c0,4 1.477,4.5 2,4.5c0.61,0 0.569,-1.515 0.569,-1.515c0,0 2.931,2.015 4.931,10.515v-4c0,0 2,2 2,6.5l-2.5,-0.5c0,0 0,0 2,3c-4.216,0 -13,-3 -13,-10zM19.5,41c0,0 -2,-2.5 -0.005,-5.5l1,2zM21,50c0,0 -1,-2 0.5,-4.5l0.5,3.5zM22,37l1.5,2l-1,5c0,-0.001 -2.5,-3 -0.5,-7zM23,52.5c0,0.001 -1,-2 0.5,-4.5l0.5,3.5zM25,54.5c0,0.001 -1,-2.5 0.5,-5.5l0.5,4zM25.5,38l1.5,2.446l-0.897,6.224c0,-0.001 -3.103,-4.17 -0.603,-8.67zM27.5,56.5c0,0 -1.97,-1.846 0.5,-6.5l0.5,4.5zM30,57.5c0,0 -1.5,-2.5 0.359,-6.4l0.641,4.9zM30.5,48c-0.001,-0.001 -4,-4 -1.5,-8.5l2,2.5zM34,57.5l-1,-1.5l0.641,-4.9c1.859,3.9 0.359,6.4 0.359,6.4zM33.005,42l2,-2.5c2.5,4.5 -1.504,8.499 -1.505,8.5zM36.5,56.5l-1,-2l0.5,-4.5c2.47,4.654 0.5,6.5 0.5,6.5zM39,54.5l-1,-1.5l0.5,-4c1.5,3 0.5,5.501 0.5,5.5zM37.897,46.67l-0.897,-6.224l1.5,-2.446c2.5,4.5 -0.603,8.669 -0.603,8.67zM41,52.5l-1,-1l0.5,-3.5c1.5,2.5 0.5,4.501 0.5,4.5zM40.5,39l1.5,-2c2,4 -0.5,6.999 -0.5,7zM43,50l-1,-1l0.5,-3.5c1.5,2.5 0.5,4.5 0.5,4.5zM44.5,41l-0.995,-3.5l1,-2c1.995,3 -0.005,5.5 -0.005,5.5zM35,35c2,-3 2,-3 2,-3l-2.5,0.5c0,-4.5 2,-6.5 2,-6.5v4c2,-8.5 4.931,-10.515 4.931,-10.515c0,0 -0.041,1.515 0.569,1.515c0.523,0 2,-0.5 2,-4.5c0,-4.445 -2.154,-6.5 -2.154,-6.5c8.654,7 4.83,16.85 4.83,16.85l1.324,-1.85c0,7 -8.784,10 -13,10zM47,38l-1,-2.5l1.5,-2c1.243,2.564 -0.5,4.5 -0.5,4.5z"></path></g></g></g>
</svg>